<svg width="2059" height="1374" xmlns="http://www.w3.org/2000/svg" xmlns:xlink="http://www.w3.org/1999/xlink" xml:space="preserve" overflow="hidden"><g transform="translate(-264 -390)"><rect x="482.5" y="392.5" width="1838" height="1191" stroke="#223F59" stroke-width="4.58333" stroke-miterlimit="8" fill="#F2F2F2"/><path d="M570.5 599.668C570.5 570.856 593.856 547.5 622.668 547.5L984.332 547.5C1013.14 547.5 1036.5 570.856 1036.5 599.668L1036.5 808.332C1036.5 837.144 1013.14 860.5 984.332 860.5L622.668 860.5C593.856 860.5 570.5 837.144 570.5 808.332Z" stroke="#000000" stroke-width="6.875" stroke-miterlimit="8" fill="#BFBFBF" fill-rule="evenodd"/><text font-family="Calibri,Calibri_MSFontService,sans-serif" font-weight="700" font-size="55" transform="matrix(1 0 0 1 617.93 630)">Scenario C</text><path d="M358 1362.5 270.5 1275 314.25 1275 314.25 634.999 270.5 634.999 358 547.5 445.5 634.999 401.75 634.999 401.75 1275 445.5 1275Z" stroke="#223F59" stroke-width="4.58333" stroke-miterlimit="8" fill="#FFC000" fill-rule="evenodd"/><text font-family="Calibri,Calibri_MSFontService,sans-serif" font-weight="700" font-size="50" transform="matrix(-1.83697e-16 -1 1 -1.83697e-16 374.595 1115)">robust </text><text font-family="Calibri,Calibri_MSFontService,sans-serif" font-weight="700" font-size="50" transform="matrix(-1.83697e-16 -1 1 -1.83697e-16 374.595 967)">decision</text><text font-family="Calibri,Calibri_MSFontService,sans-serif" font-weight="700" font-size="55" transform="matrix(1 0 0 1 718.007 481)">period</text><text font-family="Calibri,Calibri_MSFontService,sans-serif" font-weight="700" font-size="55" transform="matrix(1 0 0 1 880.716 481)">1</text><rect x="525.5" y="1405.5" width="556" height="123" stroke="#223F59" stroke-width="4.58333" stroke-miterlimit="8" fill="#A9D18E"/><text font-family="Calibri,Calibri_MSFontService,sans-serif" font-weight="400" font-size="55" transform="matrix(1 0 0 1 669.126 1484)">initial </text><text font-family="Calibri,Calibri_MSFontService,sans-serif" font-weight="400" font-size="55" transform="matrix(1 0 0 1 805.481 1484)">invest</text><rect x="1201.5" y="1405.5" width="556" height="123" stroke="#223F59" stroke-width="4.58333" stroke-miterlimit="8" fill="#A9D18E"/><text font-family="Calibri,Calibri_MSFontService,sans-serif" font-weight="400" font-size="55" transform="matrix(1 0 0 1 1247.92 1484)">additional de</text><text font-family="Calibri,Calibri_MSFontService,sans-serif" font-weight="400" font-size="55" transform="matrix(1 0 0 1 1540.68 1484)">-</text><text font-family="Calibri,Calibri_MSFontService,sans-serif" font-weight="400" font-size="55" transform="matrix(1 0 0 1 1557.29 1484)">/</text><text font-family="Calibri,Calibri_MSFontService,sans-serif" font-weight="400" font-size="55" transform="matrix(1 0 0 1 1578.49 1484)">invest</text><path d="M0.00528659-5.15625 93.5502-5.06034 93.5397 5.25216-0.00528659 5.15625ZM88.4046-15.3781 119.326 0.122343 88.3728 15.5594Z" fill="#385723" transform="matrix(1 0 0 -1 1081 1466.12)"/><path d="M525.5 1681 602 1604.5 602 1642.75 2202 1642.75 2202 1604.5 2278.5 1681 2202 1757.5 2202 1719.25 602 1719.25 602 1757.5Z" stroke="#223F59" stroke-width="4.58333" stroke-miterlimit="8" fill="#FFC000" fill-rule="evenodd"/><text font-family="Calibri,Calibri_MSFontService,sans-serif" font-weight="700" font-size="50" transform="matrix(1 0 0 1 1199.94 1697)">sequential</text><text font-family="Calibri,Calibri_MSFontService,sans-serif" font-weight="700" font-size="50" transform="matrix(1 0 0 1 1430.26 1697)">decision</text><text font-family="Calibri,Calibri_MSFontService,sans-serif" font-weight="400" font-size="147" transform="matrix(1 0 0 1 1975.37 932)">…</text><path d="M1757 1464.84 1844.85 1464.84 1844.85 1475.16 1757 1475.16ZM1839.7 1454.53 1870.64 1470 1839.7 1485.47Z" fill="#385723"/><text font-family="Calibri,Calibri_MSFontService,sans-serif" font-weight="700" font-size="55" transform="matrix(1 0 0 1 1369.25 484)">period</text><text font-family="Calibri,Calibri_MSFontService,sans-serif" font-weight="700" font-size="55" transform="matrix(1 0 0 1 1531.96 484)">2</text><text font-family="Calibri,Calibri_MSFontService,sans-serif" font-weight="700" font-size="55" transform="matrix(1 0 0 1 1905.29 481)">period</text><text font-family="Calibri,Calibri_MSFontService,sans-serif" font-weight="700" font-size="55" transform="matrix(1 0 0 1 2068 481)">3...n</text><text font-family="Calibri,Calibri_MSFontService,sans-serif" font-weight="400" font-size="147" transform="matrix(1 0 0 1 1962.68 1488)">…</text><rect x="654" y="658" width="223" height="127" fill="#FFFFFF"/><path d="M1.14583-3.94321e-06 1.14612 81.9529-1.14555 81.9529-1.14583 3.94321e-06ZM13.7503 77.3695 0.000360892 104.87-13.7497 77.3696Z" fill="#7F7F7F" transform="matrix(1 0 0 -1 675 765.87)"/><path d="M678.5 752.5C685.383 737.806 692.266 723.113 699.149 722.525 706.032 721.937 712.916 747.798 719.799 748.974 726.682 750.149 733.565 730.166 740.448 729.578 747.331 728.99 753.87 746.623 761.097 745.447 768.325 744.272 776.24 721.643 783.812 722.525 791.383 723.407 798.954 749.855 806.526 750.737 814.097 751.618 824.078 728.696 829.24 727.815 834.402 726.933 835.951 736.19 837.5 745.447" stroke="#223F59" stroke-width="4.58333" stroke-miterlimit="8" fill="#FFFFFF" fill-rule="evenodd"/><path d="M674 764.854 845.924 764.854 845.924 767.146 674 767.146ZM841.341 752.25 868.841 766 841.34 779.75Z" fill="#7F7F7F"/><path d="M933.5 644.5C913.066 644.5 896.5 627.711 896.5 607 896.5 586.289 913.066 569.5 933.5 569.5 953.935 569.5 970.5 586.289 970.5 607L933.5 607Z" stroke="#223F59" stroke-width="4.58333" stroke-miterlimit="8" fill="none" fill-rule="evenodd"/><path d="M981.499 615.742C981.642 637.004 964.521 654.357 943.258 654.499 943.136 654.5 943.014 654.5 942.892 654.5L943 616Z" stroke="#000000" stroke-width="4.58333" stroke-miterlimit="8" fill="#767171" fill-rule="evenodd"/><path d="M570.5 853.334C570.5 825.811 592.812 803.5 620.334 803.5L986.666 803.5C1014.19 803.5 1036.5 825.811 1036.5 853.334L1036.5 1052.67C1036.5 1080.19 1014.19 1102.5 986.666 1102.5L620.334 1102.5C592.812 1102.5 570.5 1080.19 570.5 1052.67Z" stroke="#000000" stroke-width="6.875" stroke-miterlimit="8" fill="#BFBFBF" fill-rule="evenodd"/><text font-family="Calibri,Calibri_MSFontService,sans-serif" font-weight="700" font-size="55" transform="matrix(1 0 0 1 617.23 885)">Scenario B</text><path d="M970.5 869C970.5 889.711 953.934 906.5 933.5 906.5 913.065 906.5 896.5 889.711 896.5 869 896.5 848.289 913.065 831.5 933.5 831.5L933.5 869Z" stroke="#223F59" stroke-width="4.58333" stroke-miterlimit="8" fill="none" fill-rule="evenodd"/><path d="M943.742 821.501C965.004 821.358 982.357 838.479 982.499 859.742 982.5 859.864 982.5 859.986 982.5 860.108L944 860Z" stroke="#000000" stroke-width="4.58333" stroke-miterlimit="8" fill="#767171" fill-rule="evenodd"/><rect x="648" y="913" width="229" height="133" fill="#FFFFFF"/><path d="M668.5 986.5 721.188 986.5" stroke="#000000" stroke-width="4.58333" stroke-miterlimit="8" fill="none" fill-rule="evenodd"/><path d="M1.14583-3.89313e-06 1.14612 83.3019-1.14555 83.3019-1.14583 3.89313e-06ZM13.7503 78.7185 0.000360892 106.219-13.7497 78.7186Z" fill="#7F7F7F" transform="matrix(1 0 0 -1 667 1031.22)"/><path d="M666 1029.85 840.43 1029.85 840.43 1032.15 666 1032.15ZM835.846 1017.25 863.346 1031 835.846 1044.75Z" fill="#7F7F7F"/><path d="M768.5 986.5 839.283 986.5" stroke="#000000" stroke-width="4.58333" stroke-miterlimit="8" fill="none" fill-rule="evenodd"/><path d="M721.5 940.5 768.699 940.5" stroke="#000000" stroke-width="4.58333" stroke-miterlimit="8" fill="none" fill-rule="evenodd"/><path d="M721.5 940.5 721.5 987.176" stroke="#000000" stroke-width="4.58333" stroke-miterlimit="8" fill="none" fill-rule="evenodd"/><path d="M768.5 940.5 768.5 987.176" stroke="#000000" stroke-width="4.58333" stroke-miterlimit="8" fill="none" fill-rule="evenodd"/><path d="M570.5 1113.33C570.5 1085.81 592.812 1063.5 620.334 1063.5L986.666 1063.5C1014.19 1063.5 1036.5 1085.81 1036.5 1113.33L1036.5 1312.67C1036.5 1340.19 1014.19 1362.5 986.666 1362.5L620.334 1362.5C592.812 1362.5 570.5 1340.19 570.5 1312.67Z" stroke="#000000" stroke-width="6.875" stroke-miterlimit="8" fill="#BFBFBF" fill-rule="evenodd"/><text font-family="Calibri,Calibri_MSFontService,sans-serif" font-weight="700" font-size="55" transform="matrix(1 0 0 1 617.23 1145)">Scenario A</text><rect x="648" y="1172" width="227" height="129" fill="#FFFFFF"/><path d="M673.5 1241.5 838.875 1241.5" stroke="#000000" stroke-width="4.58333" stroke-miterlimit="8" fill="none" fill-rule="evenodd"/><path d="M1.14583-4.10289e-06 1.14611 77.8716-1.14555 77.8716-1.14583 4.10289e-06ZM13.7503 73.2882 0.000360892 100.788-13.7497 73.2883Z" fill="#7F7F7F" transform="matrix(1 0 0 -1 671 1280.79)"/><path d="M670 1279.85 841.743 1279.85 841.743 1282.15 670 1282.15ZM837.16 1267.25 864.66 1281 837.16 1294.75Z" fill="#7F7F7F"/><path d="M940.488 1090.5C960.923 1090.49 977.494 1107.05 977.5 1127.49 977.507 1147.92 960.946 1164.49 940.512 1164.5 940.508 1164.5 940.504 1164.5 940.5 1164.5L940.5 1127.5Z" stroke="#223F59" stroke-width="4.58333" stroke-miterlimit="8" fill="none" fill-rule="evenodd"/><path d="M930.748 1164.5C910.314 1164.64 893.638 1148.18 893.501 1127.75 893.364 1107.31 909.818 1090.64 930.252 1090.5 930.293 1090.5 930.334 1090.5 930.376 1090.5L930.5 1127.5Z" stroke="#000000" stroke-width="4.58333" stroke-miterlimit="8" fill="#767171" fill-rule="evenodd"/><path d="M1246.5 599.668C1246.5 570.856 1269.86 547.5 1298.67 547.5L1661.33 547.5C1690.14 547.5 1713.5 570.856 1713.5 599.668L1713.5 808.332C1713.5 837.144 1690.14 860.5 1661.33 860.5L1298.67 860.5C1269.86 860.5 1246.5 837.144 1246.5 808.332Z" stroke="#000000" stroke-width="6.875" stroke-miterlimit="8" fill="#D9D9D9" fill-rule="evenodd"/><text font-family="Calibri,Calibri_MSFontService,sans-serif" font-weight="700" font-size="55" transform="matrix(1 0 0 1 1294.36 630)">Scenario C</text><rect x="1330" y="658" width="223" height="127" fill="#FFFFFF"/><path d="M1.14583-3.94321e-06 1.14612 81.9529-1.14555 81.9529-1.14583 3.94321e-06ZM13.7503 77.3695 0.000360892 104.87-13.7497 77.3696Z" fill="#7F7F7F" transform="matrix(1 0 0 -1 1352 765.87)"/><path d="M1354.5 717.5C1361.43 702.806 1368.35 688.113 1375.28 687.525 1382.21 686.937 1389.13 712.798 1396.06 713.973 1402.98 715.149 1409.91 695.166 1416.84 694.578 1423.76 693.99 1430.34 711.622 1437.62 710.447 1444.89 709.271 1452.85 686.643 1460.47 687.525 1468.09 688.407 1475.71 714.855 1483.33 715.737 1490.95 716.618 1500.99 693.696 1506.19 692.815 1511.38 691.933 1512.94 701.19 1514.5 710.447" stroke="#223F59" stroke-width="4.58333" stroke-miterlimit="8" fill="#FFFFFF" fill-rule="evenodd"/><path d="M1351 764.854 1522.92 764.854 1522.92 767.146 1351 767.146ZM1518.34 752.25 1545.84 766 1518.34 779.75Z" fill="#7F7F7F"/><path d="M1246.5 853.334C1246.5 825.811 1268.81 803.5 1296.33 803.5L1663.67 803.5C1691.19 803.5 1713.5 825.811 1713.5 853.334L1713.5 1052.67C1713.5 1080.19 1691.19 1102.5 1663.67 1102.5L1296.33 1102.5C1268.81 1102.5 1246.5 1080.19 1246.5 1052.67Z" stroke="#000000" stroke-width="6.875" stroke-miterlimit="8" fill="#D9D9D9" fill-rule="evenodd"/><text font-family="Calibri,Calibri_MSFontService,sans-serif" font-weight="700" font-size="55" transform="matrix(1 0 0 1 1293.66 885)">Scenario B</text><rect x="1324" y="913" width="230" height="133" fill="#FFFFFF"/><path d="M1345.5 967.5 1373.06 967.501" stroke="#000000" stroke-width="4.58333" stroke-miterlimit="8" fill="none" fill-rule="evenodd"/><path d="M1.14583-3.89313e-06 1.14612 83.3019-1.14555 83.3019-1.14583 3.89313e-06ZM13.7503 78.7185 0.000360892 106.219-13.7497 78.7186Z" fill="#7F7F7F" transform="matrix(1 0 0 -1 1343 1031.22)"/><path d="M1342 1029.85 1516.43 1029.85 1516.43 1032.15 1342 1032.15ZM1511.85 1017.25 1539.35 1031 1511.85 1044.75Z" fill="#7F7F7F"/><path d="M1445.5 967.5 1516.28 967.501" stroke="#000000" stroke-width="4.58333" stroke-miterlimit="8" fill="none" fill-rule="evenodd"/><path d="M1372.5 941.5 1444.82 941.5" stroke="#000000" stroke-width="4.58333" stroke-miterlimit="8" fill="none" fill-rule="evenodd"/><path d="M1372.5 938.5 1372.5 967.082" stroke="#000000" stroke-width="4.58333" stroke-miterlimit="8" fill="none" fill-rule="evenodd"/><path d="M1445.5 941.5 1445.5 968.242" stroke="#000000" stroke-width="4.58333" stroke-miterlimit="8" fill="none" fill-rule="evenodd"/><path d="M1246.5 1113.33C1246.5 1085.81 1268.81 1063.5 1296.33 1063.5L1663.67 1063.5C1691.19 1063.5 1713.5 1085.81 1713.5 1113.33L1713.5 1312.67C1713.5 1340.19 1691.19 1362.5 1663.67 1362.5L1296.33 1362.5C1268.81 1362.5 1246.5 1340.19 1246.5 1312.67Z" stroke="#000000" stroke-width="6.875" stroke-miterlimit="8" fill="#D9D9D9" fill-rule="evenodd"/><text font-family="Calibri,Calibri_MSFontService,sans-serif" font-weight="700" font-size="55" transform="matrix(1 0 0 1 1293.66 1145)">Scenario A</text><rect x="1324" y="1172" width="227" height="129" fill="#FFFFFF"/><path d="M1349.5 1221.5 1514.88 1221.5" stroke="#000000" stroke-width="4.58333" stroke-miterlimit="8" fill="none" fill-rule="evenodd"/><path d="M1.14583-4.10289e-06 1.14611 77.8716-1.14555 77.8716-1.14583 4.10289e-06ZM13.7503 73.2882 0.000360892 100.788-13.7497 73.2883Z" fill="#7F7F7F" transform="matrix(1 0 0 -1 1348 1280.79)"/><path d="M1347 1279.85 1518.74 1279.85 1518.74 1282.15 1347 1282.15ZM1514.16 1267.25 1541.66 1281 1514.16 1294.75Z" fill="#7F7F7F"/><text font-family="Calibri,Calibri_MSFontService,sans-serif" font-weight="400" font-size="50" transform="matrix(1 0 0 1 989.634 633)">%</text><text font-family="Calibri,Calibri_MSFontService,sans-serif" font-weight="400" font-size="50" transform="matrix(1 0 0 1 986.463 887)">%</text><text font-family="Calibri,Calibri_MSFontService,sans-serif" font-weight="400" font-size="50" transform="matrix(1 0 0 1 986.463 1150)">%</text><path d="M1605 644.5C1584.29 644.5 1567.5 627.711 1567.5 607 1567.5 586.289 1584.29 569.5 1605 569.5 1625.71 569.5 1642.5 586.289 1642.5 607L1605 607Z" stroke="#223F59" stroke-width="4.58333" stroke-miterlimit="8" fill="none" fill-rule="evenodd"/><path d="M1652.5 615.745C1652.64 637.008 1635.74 654.358 1614.75 654.499 1614.63 654.5 1614.51 654.5 1614.39 654.5L1614.5 616Z" stroke="#000000" stroke-width="4.58333" stroke-miterlimit="8" fill="#767171" fill-rule="evenodd"/><path d="M1642.5 869C1642.5 889.711 1625.71 906.5 1605 906.5 1584.29 906.5 1567.5 889.711 1567.5 869 1567.5 848.289 1584.29 831.5 1605 831.5L1605 869Z" stroke="#223F59" stroke-width="4.58333" stroke-miterlimit="8" fill="none" fill-rule="evenodd"/><path d="M1614.74 821.501C1636 821.358 1653.36 838.479 1653.5 859.742 1653.5 859.864 1653.5 859.986 1653.5 860.108L1615 860Z" stroke="#000000" stroke-width="4.58333" stroke-miterlimit="8" fill="#767171" fill-rule="evenodd"/><path d="M1612.49 1090.5C1632.92 1090.49 1649.49 1107.05 1649.5 1127.49 1649.51 1147.92 1632.95 1164.49 1612.51 1164.5 1612.51 1164.5 1612.5 1164.5 1612.5 1164.5L1612.5 1127.5Z" stroke="#223F59" stroke-width="4.58333" stroke-miterlimit="8" fill="none" fill-rule="evenodd"/><path d="M1602.25 1164.5C1581.54 1164.63 1564.64 1148.18 1564.5 1127.74 1564.36 1107.31 1581.04 1090.64 1601.75 1090.5 1601.79 1090.5 1601.83 1090.5 1601.88 1090.5L1602 1127.5Z" stroke="#000000" stroke-width="4.58333" stroke-miterlimit="8" fill="#767171" fill-rule="evenodd"/><text font-family="Calibri,Calibri_MSFontService,sans-serif" font-weight="400" font-size="50" transform="matrix(1 0 0 1 1661.27 633)">%</text><text font-family="Calibri,Calibri_MSFontService,sans-serif" font-weight="400" font-size="50" transform="matrix(1 0 0 1 1658.1 887)">%</text><text font-family="Calibri,Calibri_MSFontService,sans-serif" font-weight="400" font-size="50" transform="matrix(1 0 0 1 1658.1 1150)">%</text></g></svg>